<?xml version="1.0" encoding="utf-8"?>
<!-- Generator: Adobe Illustrator 17.1.0, SVG Export Plug-In . SVG Version: 6.00 Build 0)  -->
<!DOCTYPE svg PUBLIC "-//W3C//DTD SVG 1.1//EN" "http://www.w3.org/Graphics/SVG/1.1/DTD/svg11.dtd">
<svg version="1.1" id="Слой_1" xmlns="http://www.w3.org/2000/svg" xmlns:xlink="http://www.w3.org/1999/xlink" x="0px" y="0px"
	 viewBox="0 0 500 500" enable-background="new 0 0 500 500" xml:space="preserve">
<g>
	<path fill="#005FEF" d="M397.8,55.2H102.2c-25.4,0-46,20.6-46,46v233.6c0,25.4,20.6,46,46,46H292l93.4,64.1v-64.1h12.3
		c25.4,0,46-20.6,46-46V101.1C443.7,75.7,423.1,55.2,397.8,55.2z M416.8,327.4c0,12.4-10,22.4-22.4,22.4H104.7
		c-12.4,0-22.4-10-22.4-22.4V102.2c0-12.4,10-22.4,22.4-22.4h289.7c12.4,0,22.4,10,22.4,22.4V327.4z"/>
	<path fill="#005FEF" d="M365.8,155.2H136c-7.8,0-14.2-6.4-14.2-14.2v-0.3c0-7.8,6.4-14.2,14.2-14.2h229.9c7.8,0,14.2,6.4,14.2,14.2
		v0.3C380,148.8,373.7,155.2,365.8,155.2z"/>
	<path fill="#005FEF" d="M365.8,230.5H136c-7.8,0-14.2-6.4-14.2-14.2V216c0-7.8,6.4-14.2,14.2-14.2h229.9c7.8,0,14.2,6.4,14.2,14.2
		v0.3C380,224.1,373.7,230.5,365.8,230.5z"/>
	<path fill="#005FEF" d="M311.1,305.8H136c-7.8,0-14.2-6.4-14.2-14.2v-0.3c0-7.8,6.4-14.2,14.2-14.2h175.2c7.8,0,14.2,6.4,14.2,14.2
		v0.3C325.3,299.5,319,305.8,311.1,305.8z"/>
</g>
</svg>
