<?xml version="1.0" encoding="utf-8"?>
<!-- Generator: Adobe Illustrator 17.1.0, SVG Export Plug-In . SVG Version: 6.00 Build 0)  -->
<!DOCTYPE svg PUBLIC "-//W3C//DTD SVG 1.1//EN" "http://www.w3.org/Graphics/SVG/1.1/DTD/svg11.dtd">
<svg version="1.1" id="Слой_1" xmlns="http://www.w3.org/2000/svg" xmlns:xlink="http://www.w3.org/1999/xlink" x="0px" y="0px"
	 viewBox="0 0 150 150" enable-background="new 0 0 150 150" xml:space="preserve">
<g>
	<path d="M130.7,111c-13-13.3-30.6-20.7-49.6-20.7c-18.9,0-36.8,7.3-50.4,20.5l-1,1l7,7.2l1-1c11.7-11.4,27.1-17.7,43.4-17.7
		c16.2,0,31.3,6.3,42.4,17.6l1,1l7.2-7.1L130.7,111z"/>
	<path d="M80.7,87c15.3,0,27.8-12.5,27.8-27.8S96,31.5,80.7,31.5S52.9,43.9,52.9,59.2S65.4,87,80.7,87z M63,59.2
		c0-9.7,7.9-17.7,17.7-17.7c9.7,0,17.7,7.9,17.7,17.7s-7.9,17.7-17.7,17.7S63,69,63,59.2z"/>
</g>
<path d="M16.3,21v9.2h-5.6c-3.2,0-5.8,2.6-5.8,5.8v4.1c0,3.2,2.6,5.8,5.8,5.8h5.6v21.3h-5.6c-3.2,0-5.8,2.6-5.8,5.8v4.1
	c0,3.2,2.6,5.8,5.8,5.8h5.6v25.3h-5.6c-3.2,0-5.8,2.6-5.8,5.8v4.1c0,3.2,2.6,5.8,5.8,5.8h5.6v5.1c0,8.8,7.2,16,16,16H129
	c8.8,0,16-7.2,16-16V21c0-8.8-7.2-16-16-16H32.3C23.5,5,16.3,12.2,16.3,21z M126,135H35.3c-5,0-9-4-9-9V24c0-5,4-9,9-9H126
	c5,0,9,4,9,9v102C135,131,131,135,126,135z"/>
</svg>
