<?xml version="1.0" encoding="utf-8"?>
<!-- Generator: Adobe Illustrator 17.1.0, SVG Export Plug-In . SVG Version: 6.00 Build 0)  -->
<!DOCTYPE svg PUBLIC "-//W3C//DTD SVG 1.1//EN" "http://www.w3.org/Graphics/SVG/1.1/DTD/svg11.dtd">
<svg version="1.1" id="Слой_1" xmlns="http://www.w3.org/2000/svg" xmlns:xlink="http://www.w3.org/1999/xlink" x="0px" y="0px"
	 viewBox="0 0 150 150" enable-background="new 0 0 150 150" xml:space="preserve">
<path d="M33.5,30.7h83.1c2.7,0,4.9,2.2,4.9,5v0.1c0,2.7-2.2,5-4.9,5H33.5c-2.7,0-5-2.2-5-5v-0.1C28.5,32.9,30.7,30.7,33.5,30.7z"/>
<path d="M33.4,57.7h83.1c2.7,0,4.9,2.2,4.9,4.9v0.1c0,2.7-2.2,4.9-4.9,4.9H33.4c-2.7,0-4.9-2.2-4.9-4.9v-0.1
	C28.5,59.9,30.7,57.7,33.4,57.7z"/>
<path d="M33.5,84.7h63.8c2.7,0,4.9,2.2,4.9,4.9v0.1c0,2.7-2.2,4.9-4.9,4.9H33.5c-2.7,0-5-2.2-5-4.9v-0.1
	C28.5,86.9,30.7,84.7,33.5,84.7z"/>
<path d="M129,4.5H21c-8.8,0-16,7.2-16,16v83.8c0,8.8,7.2,16,16,16h68l35.5,24.7v-24.7h4.5c8.8,0,16-7.2,16-16V20.5
	C145,11.7,137.8,4.5,129,4.5z M135,104.3c0,3.3-2.7,6-6,6H21c-3.3,0-6-2.7-6-6V20.5c0-3.3,2.7-6,6-6h108c3.3,0,6,2.7,6,6V104.3z"/>
</svg>
