<?xml version="1.0" encoding="utf-8"?>
<!-- Generator: Adobe Illustrator 17.1.0, SVG Export Plug-In . SVG Version: 6.00 Build 0)  -->
<!DOCTYPE svg PUBLIC "-//W3C//DTD SVG 1.1//EN" "http://www.w3.org/Graphics/SVG/1.1/DTD/svg11.dtd">
<svg version="1.1" id="Слой_1" xmlns="http://www.w3.org/2000/svg" xmlns:xlink="http://www.w3.org/1999/xlink" x="0px" y="0px"
	 viewBox="0 0 150 150" enable-background="new 0 0 150 150" xml:space="preserve">
<g>
	<path d="M15.1,132.5l-7-7.2c37.8-36.6,97.8-36.6,133.8,0.2l-7.1,7C102.6,99.6,48.9,99.7,15.1,132.5z"/>
	<path d="M75,89.5c-19.9,0-36-16.1-36-36s16.1-36,36-36s36,16.1,36,36S94.9,89.5,75,89.5z M75,27.5c-14.3,0-26,11.7-26,26
		s11.7,26,26,26s26-11.7,26-26S89.3,27.5,75,27.5z"/>
</g>
</svg>
